<svg width="463" height="123" viewBox="0 0 463 123" fill="none" xmlns="http://www.w3.org/2000/svg">
<g clipPath="url(#clip0_1_235)">
<path fillRule="evenodd" clipRule="evenodd" d="M413.178 -432.375C408.07 -434.352 400.815 -437.297 396.569 -439.043C381.136 -438.153 349.733 -436.242 347.586 -435.709C345.439 -435.176 325.666 -439.487 316.048 -441.709L300.575 -432.375H294.299L280.484 -441.709L269.077 -435.709L230.829 -441.709L213.92 -432.375H194.09L173.121 -439.043L140.242 -433.042L101.323 -441.709L46.971 -433.042L48.447 -432.375H41.6029C23.0734 -432.375 8.05218 -417.451 8.05218 -399.04V-384.823C6.22906 -380.274 4.07704 -375.049 2.68406 -371.704C3.57875 -356.37 5.50232 -325.167 6.03913 -323.034C6.57594 -320.9 2.23671 -301.255 0 -291.698L8.05218 -278.521V-268.129L0 -256.362L6.03913 -245.029L0 -207.025L8.05218 -192.625V-166.355L2.68406 -149.687L8.05218 -120.648V-114.044L0 -78.3493L8.05218 -28.4992V-23.0117C8.05218 -7.49356 18.7226 5.54669 33.1706 9.26288L46.3 62.3294L52.6726 10.5278H53.7403C57.7684 12.1257 62.2382 13.9388 65.4536 15.2569L74.4827 34.1227L77.8961 14.9821C93.8032 14.0249 113.72 12.7461 115.414 12.3245C117.562 11.7914 137.334 16.1027 146.952 18.3248L156.55 12.5347L169.984 29.2416L178.269 15.4557L182.516 18.3248L193.923 12.3245L232.171 18.3248L246.664 10.3251H273.102L289.879 15.6583L295.549 14.6238L312.376 34.1227L326.129 12.1548H333.972L361.677 18.3248L387.904 14.1426L409.262 52.8367L413.307 105.722L418.971 123L421.398 46.3273L436.94 6.53934C447.644 0.969482 454.948 -10.174 454.948 -23.0117V-38.5614C456.771 -43.1108 458.924 -48.3349 460.316 -51.6802C459.421 -67.0145 457.498 -98.2165 456.961 -100.35C456.424 -102.484 460.763 -122.129 463 -131.686L454.948 -144.864V-155.256L463 -167.021L456.961 -178.356L463 -216.359L454.948 -230.76V-257.03L460.316 -273.697L454.948 -302.735V-309.341L463 -345.036L454.948 -394.885V-399.04C454.948 -417.451 439.927 -432.375 421.398 -432.375H413.178ZM98.6391 -9.67648L128.576 -3.01004H148.518L170.438 -7.00986L183.019 -3.01004H216.067L228.146 -9.67648L266.393 -3.67606L277.8 -9.67648L287.667 -3.01004H302.312L313.365 -9.67648C322.982 -7.45435 342.754 -3.14301 344.902 -3.67606C347.048 -4.20911 378.452 -6.12103 393.886 -7.00986C396.452 -5.95517 400.116 -4.46234 403.741 -3.01004H421.398C432.515 -3.01004 441.527 -11.9644 441.527 -23.0117V-33.8311L433.475 -83.6825L441.527 -119.378V-125.981L436.159 -155.021L441.527 -171.69V-197.957L433.475 -212.359L439.514 -250.361L433.475 -261.696L441.527 -273.461V-283.854L433.475 -297.032C435.712 -306.588 440.052 -326.234 439.514 -328.368C438.978 -330.501 437.054 -361.704 436.159 -377.038C437.553 -380.383 439.704 -385.608 441.527 -390.158V-399.04C441.527 -410.086 432.515 -419.041 421.398 -419.041H411.849L361.677 -411.041L325.752 -419.041H319.105L289.879 -413.707L273.102 -419.041H246.666L232.171 -411.041L193.923 -417.041L182.516 -411.041L170.675 -419.041H160.214L146.952 -411.041C137.335 -413.263 117.562 -417.574 115.414 -417.041C113.267 -416.508 81.8639 -414.596 66.4301 -413.707C63.0643 -415.091 57.8059 -417.23 53.2261 -419.041H41.6029C30.4852 -419.041 21.4725 -410.086 21.4725 -399.04V-393.551L29.5245 -343.702L21.4725 -308.007V-301.402L26.8405 -272.364L21.4725 -255.696V-229.427L29.5245 -215.025L23.4853 -177.023L29.5245 -165.688L21.4725 -153.923V-143.53L29.5245 -130.352C27.2878 -120.796 22.9486 -101.15 23.4853 -99.0169C24.0221 -96.8835 25.9457 -65.6815 26.8405 -50.3469C25.4475 -47.0017 23.2955 -41.7776 21.4725 -37.2269V-23.0117C21.4725 -11.9644 30.4852 -3.01004 41.6029 -3.01004H56.8305L98.6391 -9.67648Z" fill="#B0ECFF"/>
</g>
<defs>
<clipPath id="clip0_1_235">
<rect width="463" height="123" fill="white"/>
</clipPath>
</defs>
</svg>
