<svg width="491" height="22" viewBox="0 0 491 22" fill="none" xmlns="http://www.w3.org/2000/svg">
<g clipPath="url(#clip0_1_237)">
<path fillRule="evenodd" clipRule="evenodd" d="M438.165 9.96775C432.748 7.85737 425.054 4.71212 420.552 2.84799C404.185 3.79731 370.883 5.83837 368.606 6.40796C366.329 6.97756 345.361 2.37332 335.161 9.95914e-06L318.752 9.96775H312.096L297.446 8.30966e-06L285.349 6.40796L244.789 6.00659e-06L226.857 9.96775H205.828L183.591 2.84798L148.723 9.25592L107.451 0L49.8116 9.25592L51.3769 9.96775H44.1189C24.4687 9.96775 8.53914 25.9062 8.53914 45.5674V60.7489C6.60576 65.6079 4.3236 71.1875 2.84638 74.7592C3.79517 91.135 5.83507 124.457 6.40435 126.735C6.97362 129.013 2.37198 149.993 0 160.199L8.53914 174.27V185.369L0 197.935L6.40435 210.037L0 250.622L8.53914 266V294.053L2.84638 311.853L8.53914 342.865V349.918L0 388.036L8.53914 441.272V447.132C8.53914 463.704 19.8548 477.629 35.1766 481.598L49.1 538.268L55.858 482.949H56.9902C61.2619 484.655 66.002 486.591 69.4119 487.999L78.987 508.146L82.6069 487.706C99.476 486.683 120.597 485.317 122.394 484.868C124.671 484.298 145.639 488.902 155.839 491.276L166.017 485.092L180.264 502.934L189.05 488.211L193.554 491.276L205.651 484.868L246.211 491.276L261.582 482.732H289.618L307.409 488.428L313.423 487.323L331.267 508.146L345.852 484.687H354.169L383.549 491.276L411.363 486.809L434.012 528.131L438.302 584.607L444.308 603.059L446.882 521.179L463.364 478.69C474.716 472.741 482.461 460.841 482.461 447.132V430.526C484.394 425.668 486.677 420.089 488.154 416.516C487.204 400.141 485.165 366.82 484.596 364.541C484.026 362.262 488.628 341.283 491 331.077L482.461 317.004V305.906L491 293.342L484.596 281.238L491 240.654L482.461 225.275V197.222L488.154 179.422L482.461 148.412V141.358L491 103.239L482.461 50.0046V45.5674C482.461 25.9062 466.531 9.96775 446.882 9.96775H438.165ZM104.604 461.372L136.352 468.491H157.5L180.745 464.22L194.087 468.491H229.134L241.943 461.372L282.503 467.78L294.6 461.372L305.064 468.491H320.595L332.315 461.372C342.514 463.746 363.482 468.35 365.76 467.78C368.036 467.211 401.339 465.169 417.706 464.22C420.427 465.347 424.313 466.94 428.157 468.491H446.882C458.671 468.491 468.229 458.929 468.229 447.132V435.577L459.69 382.341L468.229 344.221V337.169L462.536 306.158L468.229 288.357V260.305L459.69 244.926L466.094 204.342L459.69 192.238L468.229 179.674V168.575L459.69 154.502C462.062 144.297 466.664 123.317 466.094 121.039C465.525 118.761 463.485 85.4389 462.536 69.0632C464.014 65.4914 466.296 59.912 468.229 55.0525V45.5674C468.229 33.7708 458.671 24.2077 446.882 24.2077H436.756L383.549 32.7517L345.451 24.2077H338.403L307.409 29.9038L289.618 24.2077H261.583L246.211 32.7517L205.651 26.3438L193.554 32.7518L180.996 24.2077H169.903L155.839 32.7518C145.64 30.3784 124.671 25.7742 122.394 26.3438C120.117 26.9133 86.8146 28.9544 70.4475 29.9038C66.8781 28.4257 61.3017 26.1421 56.445 24.2077H44.1189C32.3288 24.2077 22.771 33.7708 22.771 45.5674V51.4288L31.31 104.663L22.771 142.782V149.836L28.4637 180.846L22.771 198.646V226.699L31.31 242.078L24.9056 282.662L31.31 294.766L22.771 307.33V318.429L31.31 332.502C28.9381 342.706 24.3364 363.687 24.9056 365.965C25.4749 368.243 27.5148 401.564 28.4637 417.94C26.9865 421.512 24.7043 427.091 22.771 431.951V447.132C22.771 458.929 32.3288 468.491 44.1189 468.491H60.2673L104.604 461.372Z" fill="#B0ECFF"/>
</g>
<defs>
<clipPath id="clip0_1_237">
<rect width="491" height="22" fill="white"/>
</clipPath>
</defs>
</svg>
