<svg width="760" height="34" viewBox="0 0 760 34" fill="none" xmlns="http://www.w3.org/2000/svg">
<g clipPath="url(#clip0_1_5)">
<path fillRule="evenodd" clipRule="evenodd" d="M678.219 15.4047C669.834 12.1432 657.925 7.28237 650.956 4.40144C625.622 5.86857 574.076 9.02293 570.551 9.90321C567.027 10.7835 534.571 3.66786 518.783 1.53914e-05L493.384 15.4047H483.082L460.405 1.28422e-05L441.681 9.90321L378.899 9.28291e-06L351.143 15.4047H318.593L284.173 4.40142L230.203 14.3046L166.319 0L77.1015 14.3046L79.5243 15.4047H68.2899C37.8742 15.4047 13.2174 40.0369 13.2174 70.4224V93.8846C10.2248 101.394 6.69233 110.017 4.4058 115.537C5.8744 140.845 9.03188 192.342 9.91304 195.863C10.7942 199.384 3.67149 231.807 0 247.58L13.2174 269.327V286.479L0 305.899L9.91304 324.603L0 387.325L13.2174 411.091V454.446L4.4058 481.955L13.2174 529.882V540.782L0 599.692L13.2174 681.965V691.022C13.2174 716.633 30.7325 738.154 54.4485 744.288L76 831.869L86.4604 746.375H88.213C94.825 749.012 102.162 752.005 107.44 754.18L122.261 785.317L127.864 753.727C153.975 752.147 186.668 750.036 189.449 749.341C192.974 748.461 225.429 755.576 241.217 759.244L256.972 749.688L279.023 777.261L292.623 754.508L299.595 759.244L318.319 749.341L381.101 759.244L404.892 746.041H448.289L475.827 754.843L485.135 753.135L512.755 785.317L535.331 749.061H548.205L593.681 759.244L636.733 752.341L671.79 816.202L678.431 903.484L687.727 932L691.711 805.459L717.224 739.793C734.794 730.6 746.783 712.209 746.783 691.022V665.358C749.775 657.85 753.309 649.228 755.595 643.707C754.125 618.399 750.968 566.903 750.087 563.382C749.205 559.86 756.328 527.437 760 511.664L746.783 489.916V472.764L760 453.347L750.087 434.64L760 371.92L746.783 348.152V304.797L755.595 277.289L746.783 229.364V218.462L760 159.551L746.783 77.2799V70.4224C746.783 40.0369 722.126 15.4047 691.711 15.4047H678.219ZM161.913 713.03L211.054 724.032H243.788L279.768 717.431L300.42 724.032H354.667L374.494 713.03L437.276 722.933L456 713.03L472.197 724.032H496.236L514.378 713.03C530.164 716.698 562.62 723.813 566.146 722.933C569.669 722.053 621.217 718.898 646.551 717.431C650.763 719.172 656.778 721.635 662.728 724.032H691.711C709.959 724.032 724.753 709.254 724.753 691.022V673.165L711.536 590.89L724.753 531.978V521.08L715.941 473.153L724.753 445.642V402.29L711.536 378.522L721.449 315.802L711.536 297.095L724.753 277.678V260.525L711.536 238.776C715.208 223.005 722.331 190.581 721.449 187.06C720.568 183.539 717.411 132.042 715.941 106.734C718.229 101.214 721.761 92.5913 724.753 85.0812V70.4224C724.753 52.1912 709.959 37.4119 691.711 37.4119H676.038L593.681 50.6162L534.711 37.4119H523.801L475.827 46.2149L448.289 37.4119H404.894L381.101 50.6162L318.319 40.7131L299.595 50.6164L280.157 37.4119H262.987L241.217 50.6164C225.431 46.9484 192.974 39.8328 189.449 40.7131C185.925 41.5933 134.377 44.7477 109.043 46.2149C103.518 43.9306 94.8865 40.4014 87.369 37.4119H68.2899C50.0405 37.4119 35.2464 52.1912 35.2464 70.4224V79.4808L48.4635 161.752L35.2464 220.663V231.564L44.0578 279.489L35.2464 306.998V350.353L48.4635 374.121L38.5504 436.841L48.4635 455.547L35.2464 474.965V492.117L48.4635 513.866C44.7921 529.637 37.6694 562.061 38.5504 565.582C39.4316 569.103 42.5891 620.599 44.0578 645.907C41.7713 651.428 38.2389 660.05 35.2464 667.561V691.022C35.2464 709.254 50.0405 724.032 68.2899 724.032H93.2855L161.913 713.03Z" fill="#B0ECFF"/>
</g>
<defs>
<clipPath id="clip0_1_5">
<rect width="760" height="34" fill="white"/>
</clipPath>
</defs>
</svg>
