<svg width="760" height="202" viewBox="0 0 760 202" fill="none" xmlns="http://www.w3.org/2000/svg">
<g clipPath="url(#clip0_1_7)">
<path fillRule="evenodd" clipRule="evenodd" d="M678.219 -714.595C669.834 -717.857 657.925 -722.718 650.956 -725.599C625.622 -724.131 574.076 -720.977 570.551 -720.097C567.027 -719.217 534.571 -726.332 518.783 -730L493.384 -714.595H483.082L460.405 -730L441.681 -720.097L378.899 -730L351.143 -714.595H318.593L284.173 -725.599L230.203 -715.695L166.319 -730L77.1015 -715.695L79.5243 -714.595H68.2899C37.8742 -714.595 13.2174 -689.963 13.2174 -659.578V-636.115C10.2248 -628.606 6.69233 -619.983 4.4058 -614.463C5.8744 -589.155 9.03188 -537.658 9.91304 -534.137C10.7942 -530.616 3.67149 -498.193 0 -482.42L13.2174 -460.673V-443.521L0 -424.101L9.91304 -405.397L0 -342.675L13.2174 -318.909V-275.554L4.4058 -248.045L13.2174 -200.118V-189.218L0 -130.308L13.2174 -48.0351V-38.9784C13.2174 -13.3672 30.7325 8.15448 54.4485 14.2877L76 101.869L86.4604 16.3753H88.213C94.825 19.0125 102.162 22.0049 107.44 24.1803L122.261 55.3166L127.864 23.7268C153.975 22.147 186.668 20.0364 189.449 19.3406C192.974 18.4608 225.429 25.5762 241.217 29.2436L256.972 19.6875L279.023 47.2608L292.623 24.5083L299.595 29.2436L318.319 19.3406L381.101 29.2436L404.892 16.0409H448.289L475.827 24.8427L485.135 23.1354L512.755 55.3166L535.331 19.0605H548.205L593.681 29.2436L636.733 22.3413L671.79 86.2022L678.431 173.484L687.727 202L691.711 75.4591L717.224 9.79279C734.794 0.60022 746.783 -17.7911 746.783 -38.9784V-64.6418C749.775 -72.1501 753.309 -80.7721 755.595 -86.2931C754.125 -111.601 750.968 -163.097 750.087 -166.618C749.205 -170.14 756.328 -202.563 760 -218.336L746.783 -240.084V-257.236L760 -276.653L750.087 -295.36L760 -358.08L746.783 -381.848V-425.203L755.595 -452.711L746.783 -500.636V-511.538L760 -570.449L746.783 -652.72V-659.578C746.783 -689.963 722.126 -714.595 691.711 -714.595H678.219ZM161.913 -16.9699L211.054 -5.96759H243.788L279.768 -12.5689L300.42 -5.96759H354.667L374.494 -16.9699L437.276 -7.06677L456 -16.9699L472.197 -5.96759H496.236L514.378 -16.9699C530.164 -13.3025 562.62 -6.18701 566.146 -7.06677C569.669 -7.94653 621.217 -11.102 646.551 -12.5689C650.763 -10.8282 656.778 -8.36444 662.728 -5.96759H691.711C709.959 -5.96759 724.753 -20.7459 724.753 -38.9784V-56.8348L711.536 -139.11L724.753 -198.022V-208.92L715.941 -256.847L724.753 -284.358V-327.71L711.536 -351.478L721.449 -414.198L711.536 -432.905L724.753 -452.322V-469.475L711.536 -491.224C715.208 -506.995 722.331 -539.419 721.449 -542.94C720.568 -546.461 717.411 -597.958 715.941 -623.266C718.229 -628.786 721.761 -637.409 724.753 -644.919V-659.578C724.753 -677.809 709.959 -692.588 691.711 -692.588H676.038L593.681 -679.384L534.711 -692.588H523.801L475.827 -683.785L448.289 -692.588H404.894L381.101 -679.384L318.319 -689.287L299.595 -679.384L280.157 -692.588H262.987L241.217 -679.384C225.431 -683.052 192.974 -690.167 189.449 -689.287C185.925 -688.407 134.377 -685.252 109.043 -683.785C103.518 -686.069 94.8865 -689.599 87.369 -692.588H68.2899C50.0405 -692.588 35.2464 -677.809 35.2464 -659.578V-650.519L48.4635 -568.248L35.2464 -509.337V-498.436L44.0578 -450.511L35.2464 -423.002V-379.647L48.4635 -355.879L38.5504 -293.159L48.4635 -274.453L35.2464 -255.035V-237.883L48.4635 -216.134C44.7921 -200.363 37.6694 -167.939 38.5504 -164.418C39.4316 -160.897 42.5891 -109.401 44.0578 -84.0927C41.7713 -78.5717 38.2389 -69.9497 35.2464 -62.4393V-38.9784C35.2464 -20.7459 50.0405 -5.96759 68.2899 -5.96759H93.2855L161.913 -16.9699Z" fill="#B0ECFF"/>
</g>
<defs>
<clipPath id="clip0_1_7">
<rect width="760" height="203" fill="white" transform="translate(0 -1)"/>
</clipPath>
</defs>
</svg>
